<?xml version="1.0" encoding="UTF-8"?>
<svg id="svg" xmlns="http://www.w3.org/2000/svg" xmlns:xlink="http://www.w3.org/1999/xlink" viewBox="0 0 300 295.96">
  <defs>
    <linearGradient id="linear-gradient" x1="89.01" y1="107.96" x2="220.4" y2="95.22" gradientTransform="translate(0 298) scale(1 -1)" gradientUnits="userSpaceOnUse">
      <stop offset="0" stop-color="#fdb565"/>
      <stop offset="1" stop-color="#f08c34"/>
    </linearGradient>
    <linearGradient id="linear-gradient-2" x1="124.9" y1="218.98" x2="174.93" y2="128.14" gradientTransform="translate(0 298) scale(1 -1)" gradientUnits="userSpaceOnUse">
      <stop offset="0" stop-color="#b9babc"/>
      <stop offset="1" stop-color="#9c9c9f"/>
    </linearGradient>
  </defs>
  <g>
    <path d="M70.57,268.19c.22-2.81.75-2.97,4.02-3.44,41.66,26.67,90.07,27.9,134.69,7.65,2.34-1.06,13.62-7.92,14.54-8.04,2.26-.28,3.76.85,4.02,3.06-28.92,17.14-62.61,27.22-96.62,23.34-21.75-2.48-41.82-12.09-60.65-22.58h0Z" fill="#c6c7c9"/>
    <path d="M70.57,268.19c18.83,10.48,38.9,20.1,60.65,22.58,34.01,3.88,67.7-6.2,96.62-23.34.06.51.11,2.11,0,2.49-.67,2.33-14.87,9.59-17.79,10.91-40.1,18.1-90.56,19.56-129.34-2.68-3.99-2.29-10.52-5.11-10.14-9.95h0Z" fill="#c6c7c9"/>
  </g>
  <rect x="18.39" y="124.3" width="8.81" height="19.57" rx="1" ry="1" fill="#c6c7c9"/>
  <g>
    <path d="M228.06,27.06c-.22,2.81-.75,2.97-4.02,3.44C182.38,3.83,133.97,2.6,89.35,22.85c-2.34,1.06-13.62,7.92-14.54,8.04-2.26.28-3.76-.85-4.02-3.06C99.71,10.68,133.4.61,167.41,4.48c21.75,2.48,41.82,12.09,60.65,22.58Z" fill="#c6c7c9"/>
    <path d="M228.06,27.06c-18.83-10.48-38.9-20.1-60.65-22.58-34.01-3.88-67.7,6.2-96.62,23.34-.06-.51-.11-2.11,0-2.49.67-2.33,14.87-9.59,17.79-10.91,40.1-18.1,90.56-19.56,129.34,2.68,3.99,2.29,10.52,5.11,10.14,9.95h0Z" fill="#c6c7c9"/>
  </g>
  <path d="M44.96,27.83c6.23-1.04,21.72-1.72,16.84,8.8l-13.97-1.34c-.4.57,1.84,11.81,1.53,13.78-.46,2.92-6.97.84-7.65-1.91-.2-.82-.6-16.02-.38-16.84.43-1.57,2.23-2.25,3.64-2.49h0Z" fill="#faab59"/>
  <path d="M240.5,27.83c1.25-.2,14.21-.23,14.92,0,.09.03,1.28,1.22,1.34,1.34,1.32,2.89,1.1,19.55-2.87,21.24-9.47,4.04-1.98-14.66-3.44-15.69-2.02-.31-14.23,1.24-14.73.19-1.59-3.34,1.55-6.56,4.78-7.08h0Z" fill="#faab59"/>
  <g>
    <path d="M223.85,53.08c-5.21-2.18-4.69.39-7.08,1.53-2.51,1.2-6.01.98-6.31,3.83-4.16-.07-13.98,2.09-10.33-4.4,2.64-4.7,20.17-4.39,23.72-.96Z" fill="#7bb2a2"/>
    <path d="M223.85,53.08c1.64,1.59,2.64,2.79,2.1,5.36-5.16-.06-10.34.08-15.5,0,.3-2.84,3.8-2.63,6.31-3.83s1.87-3.71,7.08-1.53h0Z" fill="#619d8e"/>
  </g>
  <g>
    <g>
      <path d="M33.25,104.36c-5.17,9.64-18.3,11.29-27.48,11.1-6.14-11.57-.97-32.15-2.47-45.34,1.7-3.6,5.81-3.62,7.4,0v33.67h8.1v-33.67c1.61-3.52,5.83-3.59,7.4,0v33.67s7.05.57,7.05.57Z" fill="#c6c7c9"/>
      <path d="M41.35,105.89c.11-2.58-.66-5.75-.53-8.42-1,11.52-3.71,20.75-15.15,23.34-4.76,1.08-8.23.21-12.68.38-.64.02-1.74-.39-1.59.77-2.3-1.61-4.28-3.94-5.64-6.51,9.18.2,22.31-1.46,27.48-11.1.48-.9.72.62,1.06-2.68,2.33-1.12,4.21-6.73,4.93-9.37,1.74-6.38,1.68-12.74,2.11-19.32.85,10.49-.63,22.28,0,32.91h0Z" fill="#97989c"/>
      <path d="M41.35,72.98c-.44,6.58-.37,12.94-2.11,19.32-.72,2.65-2.61,8.25-4.93,9.37.88-8.64-1.58-24.18,0-31.57.83-3.9,6.17-3.45,7.05,0,.17.66-.07,2.03,0,2.87h0Z" fill="#c6c7c9"/>
      <path d="M41.35,105.89c-.34,8.36-6.31,18.12-14.44,19.13-.44.05-8.26.06-8.81,0-1.88-.2-5.06-1.92-6.69-3.06-.15-1.15.94-.74,1.59-.77,4.45-.17,7.93.7,12.68-.38,11.44-2.6,14.15-11.82,15.15-23.34-.13,2.67.63,5.84.53,8.42h0Z" fill="#737476"/>
    </g>
    <g>
      <path d="M25.14,149.51c-.53.88-2.39.45-2.82,1.34-.59,1.24,1.4,24.14,1.41,27.93.01,9.38-.1,23.82-4.93,31.76-1.45,2.38-3.61,1.79-3.52,5.55l-.35-62.18c.83-4.84,6.48-5.7,10.22-4.4h0Z" fill="#df7621"/>
      <g>
        <path d="M15.28,216.09c-.09-3.76,2.08-3.17,3.52-5.55,4.83-7.94,4.95-22.38,4.93-31.76,0-3.79-2-26.69-1.41-27.93.43-.89,2.29-.46,2.82-1.34,2.02.7,3.56,3.54,4.23,5.55-1.84,11.65,3.47,56.07-.7,63.9-3.3,6.19-11.7,4.01-13.39-2.87h0Z" fill="#aa5a22"/>
        <path d="M26.38,216.86c3.02-.1-.13,4.09-1.76,4.59-1.13.35-3.97-.31-5.11-.96l6.87-3.64h0Z" fill="#aa5a22"/>
      </g>
    </g>
  </g>
  <g>
    <g>
      <path d="M287.57,71.45c-.12,3.14,3.13,6.2,4.26,9.37,4.01,11.26,2.65,29.9-6.93,37.69-3.74,3.04-6.57,3.92-10.66.77-11.14-8.58-7.36-42.19,4.8-49.94-4.87-2.34-10.65,2.53-13.5,6.51-8.64,12.07-7.99,36.52,4.97,45.15l-6.04.19c-21.67-23.12-1.17-70.4,23.1-49.74Z" fill="#c6c7c9"/>
      <path d="M287.57,71.45c14.91,12.69,11.4,45.34-6.4,53.95-1.39.67-3.51,1.16-3.91,1.91-.34-.81-3.68-.84-4.62-1.15-4.42-1.44-4.88-1.46-8.17-4.97l6.04-.19c-12.97-8.63-13.62-33.08-4.97-45.15,2.85-3.98,8.63-8.85,13.5-6.51-12.16,7.75-15.94,41.36-4.8,49.94,4.09,3.15,6.92,2.27,10.66-.77,9.58-7.79,10.94-26.43,6.93-37.69-1.13-3.18-4.38-6.24-4.26-9.37Z" fill="#97989c"/>
      <path d="M277.27,131.52c.38,2.83,1.19,5.71.71,8.99-.12.85-1.95,2.39-1.07,3.64-1.41-.03-2.88.18-4.26-.19-.39-.59,0-12.47,0-14.35l4.62,1.91h0Z" fill="#c6c7c9"/>
      <path d="M281.18,125.4l.36,18.18c-.38.91-3.76.59-4.62.57-.89-1.25.94-2.79,1.07-3.64.48-3.28-.33-6.16-.71-8.99-.09-.71.25-3.62,0-4.21.4-.76,2.52-1.24,3.91-1.91h-.01Z" fill="#97989c"/>
      <path d="M277.27,127.31c.25.59-.09,3.5,0,4.21l-4.62-1.91v-3.44c.94.31,4.28.34,4.62,1.15h0Z" fill="#c6c7c9"/>
    </g>
    <g>
      <path d="M279.04,149.51c-.34,15.06.81,30.43-1.78,45.34-.86,4.96-3.02,16.98-8.88,16.65-.91-11.19-2.05-46.53-.36-56.44.9-5.28,6.73-6.88,11.02-5.55h0Z" fill="#df7621"/>
      <g>
        <path d="M268.38,211.5c5.86.33,8.02-11.69,8.88-16.65,2.58-14.91,1.44-30.28,1.78-45.34,2.01.63,4.25,3.41,4.62,5.55,1.02,5.94,1.31,54.28.36,60.46-1.16,7.49-10.01,9.65-14.21,3.83-1.82-2.53-1.19-4.96-1.42-7.84h0Z" fill="#aa5a22"/>
        <path d="M281.35,216.47c.28-.08,1.09-.08,1.24.19-2.28,4.59-4.37,6.48-9.59,4.59l8.35-4.78Z" fill="#9b4d1c"/>
      </g>
    </g>
  </g>
  <path d="M96.05,52.31c-4.63-.63-3.31,1.23-5.17,2.3-4.17,2.4-14.12-1.09-17.03,3.83-.69-.07-1.75.21-2.3-.19-.65-2.3.98-5.18,2.87-6.31,3.23-1.94,18.36-1.8,21.62.38h0Z" fill="#7bb2a2"/>
  <path d="M96.05,52.31c2.37,1.59,3.25,3.25,2.49,6.12-7.87-.61-16.97.82-24.68,0,2.91-4.91,12.85-1.43,17.03-3.83,1.85-1.07.54-2.92,5.17-2.3h0Z" fill="#619d8e"/>
  <path d="M111.35,263.16c3.41-1.2,8.6.49,12.44.77,7.46.53,15.52.85,22.77-1.15,29.1.85,57.05-13.42,74.23-36.54,2.25-3.03,13.32-21.08,12.63-23.72-.33-1.25-7.84-1.27-9.18-.96l1.91-9.57c4.03.06,13.41-.74,16.65,0s2.55,3.72,2.1,6.31c-1.85,10.81-12.78,29.03-19.9,37.5-28.07,33.39-73.33,44.34-113.65,27.36h0Z" fill="#df7621"/>
  <path d="M226.15,191.98l-1.91,9.57c-.74.17-.45.17-.77.38-45.61.07-91.39-1.24-136.99-.77l-2.68-8.42c46.62-.94,95.09-1.42,142.35-.77h0Z" fill="url(#linear-gradient)"/>
  <path d="M73.09,192.75l1.91,8.42c-.08,0-1.17.75-1.34.77-2.53.25-6.16-.84-7.84.96-1.32,3.29,6.99,17.1,9.18,20.28,14.01,20.35,37.18,34.81,61.61,38.46,3.42.51,6.44,1.05,9.95,1.15-7.24,2-15.31,1.68-22.77,1.15-3.83-.27-9.03-1.96-12.44-.77-24.21-10.19-46.92-31.97-55.48-57.21-1.02-3.02-4.6-12.02-.19-13.2,4.11-1.1,12.98.12,17.41,0h0Z" fill="#faab59"/>
  <path d="M83.8,192.75l2.68,8.42c-3.71.04-7.85-.27-11.48,0l-1.91-8.42c3.56-.1,7.15.07,10.71,0Z" fill="#fde8ca"/>
  <path d="M224.23,201.55c1.35-.32,8.86-.29,9.18.96.7,2.64-10.38,20.7-12.63,23.72-17.19,23.12-45.13,37.39-74.23,36.54-3.51-.1-6.53-.64-9.95-1.15.78-1.79-2.44-3.85-3.64-4.59-8.35-5.21-20.31-7.74-28.7-14.16-.07-.06-1.94-1.5-.77-1.53,1.78,1.53,3.93,2.64,5.93,3.83.22.13.54.25.77.38-.05.38.15.32.38.38,1.06.29,3.07,1.38,4.21,1.91s2.23,1.06,3.44,1.53c.88.34,1.76.86,2.68,1.15,32.71,10.37,75.57-10.62,95.28-36.93,1.33-1.77,6.7-11.29,7.27-11.67.31-.21.03-.21.77-.38h0Z" fill="#edbd8e"/>
  <path d="M149.62,231.4c-.09-.42-.29-.74-.38-1.53,2.12-.98,2.17.95.38,1.53Z" fill="#fff"/>
  <path d="M192.09,68c5,1.98,21.15,19.69,24.49,24.68,11.01,16.43,10.34,36,7.65,54.91-3.36,6.07-6.27,12.64-11.48,17.41l29.27.19-.19,3.06c-2.48,4.62-8.83,10-13.97,11.1-11.62,2.47-28.71-1.15-40.94.38l-.38-.77c.2-.38.75-.57.96-.77,2.53,1.74,7.12.3,10.14.77l-7.65-.77c2.11-.61,7.24.65,8.8.38,1.44-.25,14.28-11.92,13.97-12.82l-11.86-.19c23.85-30.43,15.84-75.24-16.84-95.66l-2.87-2.68c3.73.2,7.44-.6,10.91.77h-.01Z" fill="#276259"/>
  <path d="M244.9,84.46c2.31,14.55,1.67,59.52,0,74.81-.35,3.17-1.58,6.24-3.06,8.99l.19-3.06-29.27-.19c5.21-4.77,8.12-11.34,11.48-17.41,11.99-21.67,14.91-35.37,19.13-59.5.1-.58.74-3.53,1.53-3.64Z" fill="#276259"/>
  <path d="M191.71,66.86c.09.16.04.78.38,1.15-3.47-1.37-7.18-.56-10.91-.77l2.87,2.68c-20.85-13.03-45.72-13.34-66.96-1.15l1.15-1.34c.16-.68-4.24.05-5.17-.19v-1.15c7.32-2.19,13.98-6.03,21.05-8.8,13.54-5.31,31.1-7.41,38.84-21.05,5.68,3.77,15.1,23.74,18.75,30.61h0Z" fill="#276259"/>
  <path d="M98.34,165.58c4.02,5.18,9.14,9.89,14.54,13.58l-.57.57c-18.93-2.94-47.97,8.87-56.44-13.78.32.04.36-.09.38-.38h42.09Z" fill="#276259"/>
  <path d="M74.23,67.24c1.17,2.63-2.53,2.02-3.25,2.3-3.35,1.29-7.6,2.74-9.37,6.12-4.01,4.69-4.49,12.11-4.59,17.98-1.06,6.81.17,13.64,0,20.47-.31,12.84-1.03,26.9-1.15,40.18-.03,3.76.64,7.97.38,11.29-.02.29-.06.42-.38.38-.98-2.61-2.37-6.27-2.68-8.99-1.53-13.6-2.45-58.41-.38-71.17s9.09-17.95,21.43-18.56h-.01Z" fill="#7bb2a2"/>
  <path d="M187.5,178.21c4.51-4.15,9.51-7.76,13.39-12.63l11.86.19c.32.9-12.53,12.57-13.97,12.82-1.56.27-6.69-.99-8.8-.38l7.65.77c-3.02-.47-7.61.98-10.14-.77h.01Z" fill="#1a5048"/>
  <path d="M129.34,35.1h3.06c-6.58,3.02-20.97,32.26-23.53,32.53-.62.15-.85-.77-1.34-.77,3.56-6.43,11.87-27.82,17.79-30.99,1.57-.84,2.34-.69,4.02-.77Z" fill="#7bb2a2"/>
  <path d="M172.96,36.24c-7.74,13.64-25.29,15.73-38.84,21.05-7.07,2.77-13.73,6.62-21.05,8.8v1.15c.92.24,5.33-.48,5.17.19l-1.15,1.34c-34.49,19.8-43.18,65.33-18.75,96.81h-42.09c.26-3.32-.42-7.53-.38-11.29.12-13.28.84-27.34,1.15-40.18.17-6.83-1.06-13.67,0-20.47-.22,12.49.5,35.64,3.44,47.45.09.36.43.76.57,1.15.32-.08.18-.79.19-1.15.57-15.09-5.39-53.95,8.61-63.14,3.78-2.48,12.16-5.18,16.65-6.51.92-.27,1.73-.43,2.68-.57-.15-1-1.96-.53-2.68-.57-7.43-.44-19.76-.62-24.87,5.36,1.77-3.38,6.03-4.83,9.37-6.12.73-.28,4.42.33,3.25-2.3,11.05-.54,22.23-.19,33.29-.38.48,0,.72.91,1.34.77,2.56-.26,16.95-29.5,23.53-32.53,2.15-.99,33.71-1.37,37.31-.77,1.55.26,2.26,1.26,3.25,1.91h.01Z" fill="#619d8e"/>
  <path d="M61.22,141.09c0,.36.12,1.07-.19,1.15-.14-.39-.48-.79-.57-1.15h.77-.01Z" fill="#e0e5d8"/>
  <path d="M244.9,84.46c-.79.1-1.43,3.06-1.53,3.64-4.22,24.14-7.14,37.83-19.13,59.5,2.68-18.91,3.35-38.48-7.65-54.91-3.34-4.99-19.49-22.7-24.49-24.68-.35-.37-.3-.98-.38-1.15l40.75.77c6.88,2.15,11.36,10.07,12.44,16.84h0Z" fill="#619d8e"/>
  <path d="M220.98,76.8c11.5-2.58,12.72,13.68,4.21,15.31-11.01,2.1-11.96-13.56-4.21-15.31Z" fill="#fcdf9f"/>
  <path d="M143.69,69.15c76.6-6.43,82.26,106.6,11.1,112.5s-82.76-106.48-11.1-112.5Z" fill="url(#linear-gradient-2)"/>
  <path d="M184.82,117.75c3.1,18.79-7.55,38.47-26.79,42.47-.76-3.27,4.91-3.76,7.46-5.36,14.91-9.31,22.02-27.5,13.97-43.81,2.67-3.12,3.4,5.5,5.36,6.7Z" fill="#619d8e"/>
  <path d="M184.82,117.75c-1.96-1.2-2.69-9.81-5.36-6.7,8.06,16.31.95,34.51-13.97,43.81-2.56,1.59-8.22,2.09-7.46,5.36-37.43,7.78-60.41-37.4-32.33-62.37,20.1-17.87,54.72-6.8,59.12,19.9h0Z" fill="#7bb2a2"/>
  <path d="M145.22,95.55c38.31-2.36,41.4,53.97,5.36,57.4-39.26,3.73-41.76-55.16-5.36-57.4Z" fill="#c5e5dc"/>
  <path d="M126.28,134.59c.35.05.79.03,1.15,0,6.66,13.47,26.55,13.49,35.2,2.1,12.95-17.05-5.24-41.37-24.87-31.95-1.15-.5-5.54-1.26-6.51-1.15.4-.19.8-.5,1.15-.77,2.66,1.07,5.32-1.91,7.84-2.68,9.44-2.87,19.43.71,25.45,8.61,16.64,21.83-10.08,51.21-32.72,35.78-2-1.36-8.64-7.44-6.7-9.95h0Z" fill="#8dcbc1"/>
  <path d="M122.45,131.91c1.67,1.12,1.41,2.35,3.83,2.68-1.94,2.51,4.7,8.59,6.7,9.95,22.63,15.43,49.35-13.95,32.72-35.78-6.02-7.9-16-11.48-25.45-8.61-2.52.77-5.19,3.75-7.84,2.68,27.56-21.1,60.08,24.38,29.66,43.62-13.45,8.51-37.9,2.03-39.6-14.54h-.02Z" fill="#8dcbc1"/>
  <path d="M125.13,116.22c-1.96,2.96-1.87,7.32-1.15,10.71-.98.75-1.57,3.42-1.53,4.59-1.9-6.29-1.37-13.46,1.91-19.13,0,.26.63,3.43.77,3.83Z" fill="#8dcbc1"/>
  <path d="M127.42,134.59c.76-.06,1.74-.25,2.3-.77,8.23,15.6,33.45,9.61,35.2-7.46,1.45-14.12-11.53-26.09-25.26-20.09-.35-.35-1.5-1.35-1.91-1.53,19.64-9.42,37.82,14.91,24.87,31.95-8.65,11.39-28.54,11.37-35.2-2.1h0Z" fill="#619d8e"/>
  <path d="M130.48,121.96c8.59,2.04,14.55-6.62,10.71-14.16,15.05-3.94,20.79,12.76,12.24,23.53-10.3,12.98-21.21,3.89-22.96-9.37h0Z" fill="#c5e5dc"/>
  <path d="M129.72,133.82c3.81-3.5-.94-10.56-5.74-6.89-.72-3.39-.82-7.76,1.15-10.71.57,1.62,3.7,5.35,5.36,5.74,1.75,13.26,12.66,22.36,22.96,9.37,8.55-10.77,2.81-27.48-12.24-23.53-.05-.1-1.26-1.25-1.53-1.53,13.73-6,26.7,5.97,25.26,20.09-1.75,17.07-26.98,23.06-35.2,7.46h-.02Z" fill="#8dcbc1"/>
  <g>
    <path d="M45.65,256.85c6.23,1.04,21.72,1.72,16.84-8.8l-13.97,1.34c-.4-.57,1.84-11.81,1.53-13.78-.46-2.92-6.97-.84-7.65,1.91-.2.82-.6,16.02-.38,16.84.43,1.57,2.23,2.25,3.64,2.49h0Z" fill="#faab59"/>
    <path d="M241.19,256.85c1.25.2,14.21.23,14.92,0,.09-.03,1.28-1.22,1.34-1.34,1.32-2.89,1.1-19.55-2.87-21.24-9.47-4.04-1.98,14.66-3.44,15.69-2.02.31-14.23-1.24-14.73-.19-1.59,3.34,1.55,6.56,4.78,7.08h0Z" fill="#faab59"/>
  </g>
  <circle cx="163.33" cy="227.87" r="15" fill="#fef3d2"/>
</svg>